<?xml version="1.0" encoding="UTF-8" standalone="no"?>
<!DOCTYPE svg PUBLIC "-//W3C//DTD SVG 1.1//EN" "http://www.w3.org/Graphics/SVG/1.1/DTD/svg11.dtd">
<svg width="100%" height="100%" viewBox="0 0 100 100" version="1.1" xmlns="http://www.w3.org/2000/svg" xmlns:xlink="http://www.w3.org/1999/xlink" xml:space="preserve" xmlns:serif="http://www.serif.com/" style="fill-rule:evenodd;clip-rule:evenodd;stroke-linejoin:round;stroke-miterlimit:2;">
    <g>
        <path d="M97.705,41.138L97.705,60.191C97.705,61.47 96.669,62.506 95.39,62.506L76.346,62.506C75.067,62.506 74.031,61.47 74.031,60.191L74.031,41.138C74.031,39.859 75.067,38.823 76.346,38.823L95.39,38.823C96.669,38.823 97.705,39.859 97.705,41.138ZM93.075,43.453C93.075,43.453 78.661,43.453 78.661,43.453L78.661,57.876C78.661,57.876 93.075,57.876 93.075,57.876L93.075,43.453Z" style="fill:rgb(34,133,67);"/>
        <rect x="76.346" y="41.138" width="19.044" height="19.053" style="fill:rgb(112,219,147);"/>
        <path d="M15.396,36.558C23.178,36.558 29.497,42.878 29.497,50.664C29.497,58.45 23.178,64.77 15.396,64.77C7.614,64.77 1.295,58.45 1.295,50.664C1.295,42.878 7.614,36.558 15.396,36.558ZM15.396,41.188C10.169,41.188 5.925,45.434 5.925,50.664C5.925,55.894 10.169,60.14 15.396,60.14C20.623,60.14 24.867,55.894 24.867,50.664C24.867,45.434 20.623,41.188 15.396,41.188Z" style="fill:rgb(34,133,67);"/>
        <ellipse cx="15.396" cy="50.664" rx="11.786" ry="11.791" style="fill:rgb(112,219,147);"/>
        <path d="M66.599,19.098L53.469,32.233C53.035,32.667 52.446,32.911 51.832,32.911C51.218,32.911 50.629,32.667 50.195,32.233L37.066,19.098C36.162,18.194 36.162,16.728 37.066,15.824L50.195,2.688C50.629,2.254 51.218,2.01 51.832,2.01C52.446,2.01 53.035,2.254 53.469,2.688L66.599,15.824C67.503,16.728 67.503,18.194 66.599,19.098ZM61.689,17.461L51.832,7.6L41.976,17.461C41.976,17.461 51.832,27.321 51.832,27.321L61.689,17.461Z" style="fill:rgb(34,133,67);"/>
        <path d="M64.962,17.461L51.832,30.596L38.703,17.461L51.832,4.325L64.962,17.461Z" style="fill:rgb(112,219,147);"/>
        <path d="M64.028,85.244L51.966,97.312C51.532,97.746 50.943,97.99 50.329,97.99C49.715,97.99 49.126,97.746 48.692,97.312L36.63,85.244C35.726,84.34 35.726,82.874 36.63,81.97L48.692,69.903C49.126,69.469 49.715,69.225 50.329,69.225C50.943,69.225 51.532,69.469 51.966,69.903L64.028,81.97C64.932,82.874 64.932,84.34 64.028,85.244ZM59.118,83.607L50.329,74.815C50.329,74.815 41.54,83.607 41.54,83.607C41.54,83.607 50.329,92.4 50.329,92.4L59.118,83.607Z" style="fill:rgb(34,133,67);"/>
        <path d="M62.391,83.607L50.329,95.675L38.267,83.607L50.329,71.54L62.391,83.607Z" style="fill:rgb(112,219,147);"/>
        <path d="M67.845,48.534L67.845,52.794C67.845,53.208 67.509,53.544 67.095,53.544C67.095,53.544 44.394,53.544 44.394,53.544L44.394,59.185C44.394,59.465 44.238,59.722 43.989,59.851C43.741,59.98 43.441,59.959 43.212,59.798L31.127,51.277C30.928,51.136 30.809,50.908 30.809,50.664C30.809,50.42 30.928,50.192 31.127,50.051L43.212,41.53C43.441,41.369 43.741,41.348 43.989,41.477C44.238,41.606 44.394,41.863 44.394,42.143L44.394,47.784L67.095,47.784C67.509,47.784 67.845,48.12 67.845,48.534ZM66.345,49.284L43.644,49.284C43.23,49.284 42.894,48.948 42.894,48.534L42.894,43.59C42.894,43.59 32.861,50.664 32.861,50.664L42.894,57.739L42.894,52.794C42.894,52.38 43.23,52.044 43.644,52.044C43.644,52.044 66.345,52.044 66.345,52.044L66.345,49.284Z"/>
        <path d="M12.733,85.522C12.733,85.522 12.733,79.668 12.733,79.668L6.879,79.668C6.599,79.668 6.342,79.512 6.213,79.263C6.084,79.015 6.105,78.715 6.266,78.486L14.783,66.402C14.923,66.203 15.152,66.084 15.396,66.084C15.64,66.084 15.869,66.203 16.009,66.402L24.527,78.486C24.688,78.715 24.709,79.015 24.58,79.263C24.451,79.512 24.194,79.668 23.914,79.668L18.06,79.668L18.06,80.942L31.559,80.942C31.973,80.942 32.309,81.278 32.309,81.692L32.309,85.522C32.309,85.936 31.973,86.272 31.559,86.272L13.483,86.272C13.069,86.272 12.733,85.936 12.733,85.522ZM14.233,84.772C14.233,84.772 30.809,84.772 30.809,84.772L30.809,82.442L17.31,82.442C16.896,82.442 16.56,82.106 16.56,81.692L16.56,78.918C16.56,78.504 16.896,78.168 17.31,78.168L22.468,78.168C22.468,78.168 15.396,68.136 15.396,68.136L8.325,78.168L13.483,78.168C13.897,78.168 14.233,78.504 14.233,78.918L14.233,84.772Z"/>
        <path d="M12.733,32.73L12.733,15.546C12.733,15.132 13.069,14.796 13.483,14.796L21.737,14.796L21.737,8.939C21.737,8.659 21.893,8.402 22.142,8.273C22.391,8.144 22.69,8.165 22.919,8.326L34.998,16.848C35.198,16.989 35.316,17.217 35.316,17.461C35.316,17.705 35.198,17.933 34.998,18.074L22.919,26.595C22.69,26.756 22.391,26.777 22.142,26.648C21.893,26.519 21.737,26.262 21.737,25.982L21.737,20.126L18.06,20.126L18.06,32.73C18.06,33.144 17.724,33.48 17.31,33.48L13.483,33.48C13.069,33.48 12.733,33.144 12.733,32.73ZM14.233,31.98L16.56,31.98L16.56,19.376C16.56,18.962 16.896,18.626 17.31,18.626L22.487,18.626C22.901,18.626 23.237,18.962 23.237,19.376L23.237,24.535L33.265,17.461L23.237,10.386L23.237,15.546C23.237,15.96 22.901,16.296 22.487,16.296L14.233,16.296L14.233,31.98Z"/>
        <path d="M83.204,20.126L70.672,20.126C70.258,20.126 69.922,19.79 69.922,19.376L69.922,15.546C69.922,15.132 70.258,14.796 70.672,14.796L87.781,14.796C88.195,14.796 88.531,15.132 88.531,15.546C88.531,15.546 88.531,23.881 88.531,23.881L94.385,23.881C94.665,23.881 94.922,24.037 95.051,24.286C95.18,24.534 95.159,24.834 94.998,25.063L86.481,37.147C86.341,37.346 86.112,37.465 85.868,37.465C85.624,37.465 85.395,37.346 85.255,37.147L76.737,25.063C76.576,24.834 76.555,24.534 76.684,24.286C76.813,24.037 77.07,23.881 77.35,23.881L83.204,23.881L83.204,20.126ZM84.704,19.376L84.704,24.631C84.704,25.045 84.368,25.381 83.954,25.381L78.796,25.381C78.796,25.381 85.868,35.413 85.868,35.413L92.939,25.381L87.781,25.381C87.367,25.381 87.031,25.045 87.031,24.631L87.031,16.296C87.031,16.296 71.422,16.296 71.422,16.296L71.422,18.626L83.954,18.626C84.368,18.626 84.704,18.962 84.704,19.376Z"/>
        <path d="M88.531,68.525L88.531,85.522C88.531,85.936 88.195,86.272 87.781,86.272L81.824,86.272L81.824,92.129C81.824,92.409 81.668,92.666 81.419,92.795C81.17,92.924 80.871,92.903 80.642,92.742L68.563,84.22C68.363,84.079 68.245,83.851 68.245,83.607C68.245,83.363 68.363,83.135 68.563,82.994L80.642,74.473C80.871,74.312 81.17,74.291 81.419,74.42C81.668,74.549 81.824,74.806 81.824,75.086L81.824,80.942L83.204,80.942L83.204,68.525C83.204,68.111 83.54,67.775 83.954,67.775L87.781,67.775C88.195,67.775 88.531,68.111 88.531,68.525ZM87.031,69.275L84.704,69.275L84.704,81.692C84.704,82.106 84.368,82.442 83.954,82.442L81.074,82.442C80.66,82.442 80.324,82.106 80.324,81.692L80.324,76.533L70.296,83.607L80.324,90.682L80.324,85.522C80.324,85.108 80.66,84.772 81.074,84.772C81.074,84.772 87.031,84.772 87.031,84.772L87.031,69.275Z"/>
        <path d="M67.095,48.534L67.095,52.794L43.644,52.794L43.644,59.185L31.559,50.664L43.644,42.143L43.644,48.534L67.095,48.534Z" style="fill:white;"/>
        <path d="M13.483,85.522L13.483,78.918L6.879,78.918L15.396,66.834L23.914,78.918L17.31,78.918L17.31,81.692L31.559,81.692L31.559,85.522L13.483,85.522Z" style="fill:white;"/>
        <path d="M13.483,32.73L13.483,15.546L22.487,15.546L22.487,8.939L34.566,17.461L22.487,25.982L22.487,19.376L17.31,19.376L17.31,32.73L13.483,32.73Z" style="fill:white;"/>
        <path d="M83.954,19.376L70.672,19.376L70.672,15.546L87.781,15.546L87.781,24.631L94.385,24.631L85.868,36.715L77.35,24.631L83.954,24.631L83.954,19.376Z" style="fill:white;"/>
        <path d="M87.781,68.525L87.781,85.522L81.074,85.522L81.074,92.129L68.995,83.607L81.074,75.086L81.074,81.692L83.954,81.692L83.954,68.525L87.781,68.525Z" style="fill:white;"/>
    </g>
</svg>
