<?xml version="1.0" encoding="UTF-8" standalone="no"?>
<!DOCTYPE svg PUBLIC "-//W3C//DTD SVG 1.1//EN" "http://www.w3.org/Graphics/SVG/1.1/DTD/svg11.dtd">
<svg width="100%" height="100%" viewBox="0 0 152 152" version="1.1" xmlns="http://www.w3.org/2000/svg" xmlns:xlink="http://www.w3.org/1999/xlink" xml:space="preserve" xmlns:serif="http://www.serif.com/" style="fill-rule:evenodd;clip-rule:evenodd;stroke-linejoin:round;stroke-miterlimit:2;">
    <g>
        <path d="M37.647,67.628l-16.68,-16.506c-3.145,-3.112 -3.21,-8.172 -0.145,-11.363c0,-0 12.431,-12.933 19.628,-19.413c14.1,-12.695 30.503,-18.721 45.844,-14.923c9.389,2.324 18.624,8.32 26.721,19.364c11.702,2.115 20.558,12.301 20.558,24.491c-0,8.691 -4.496,16.359 -11.32,20.813c-0,0 -0,13.719 -0,13.719c6.824,4.455 11.32,12.123 11.32,20.814c-0,12.32 -9.045,22.592 -20.93,24.555c-10.774,12.757 -22.637,18.481 -34.545,18.609c-12.503,0.135 -25.547,-6.048 -37.985,-18.617c-6.305,-6.37 -19.116,-18.914 -19.116,-18.914c-1.55,-1.518 -2.426,-3.595 -2.432,-5.764c-0.006,-2.169 0.86,-4.25 2.402,-5.776l16.788,-16.613l-0.108,-14.476Z" style="fill:rgb(0,54,41);"/>
        <g>
            <g>
                <path d="M77.241,130.542c1.193,-1.181 3.858,-3.818 3.858,-3.818l-4.354,-4.308c-0.214,-0.212 -0.291,-0.525 -0.202,-0.812c0.09,-0.287 0.332,-0.5 0.628,-0.553l16.788,-2.966c0.259,-0.046 0.524,0.038 0.71,0.224c0.186,0.186 0.269,0.451 0.222,0.71l-2.977,16.632c-0.053,0.294 -0.265,0.535 -0.55,0.625c-0.285,0.091 -0.596,0.015 -0.809,-0.195l-4.311,-4.266l-6.437,6.37c-1.417,1.402 -3.715,1.402 -5.133,-0l-15.399,-15.238c-1.424,-1.408 -1.424,-3.695 -0,-5.103c1.416,-1.402 3.716,-1.402 5.133,-0l12.833,12.698Zm-10.652,-60.419l-4.532,4.484c-0.212,0.21 -0.523,0.286 -0.808,0.196c-0.285,-0.09 -0.496,-0.33 -0.549,-0.624l-3.009,-16.602c-0.047,-0.258 0.036,-0.524 0.221,-0.71c0.185,-0.187 0.45,-0.271 0.709,-0.226l16.819,2.936c0.297,0.052 0.539,0.265 0.63,0.552c0.09,0.288 0.012,0.601 -0.202,0.813l-4.134,4.09l21.054,20.833c1.423,1.408 1.423,3.695 0,5.103c-1.416,1.402 -3.717,1.402 -5.133,0l-21.066,-20.845Zm14.165,-43.783l-4.832,-4.782l-11.514,11.393c-1.417,1.402 -3.717,1.402 -5.133,0c-1.424,-1.408 -1.424,-3.695 -0,-5.103l14.08,-13.933c1.418,-1.403 3.716,-1.403 5.134,0l7.411,7.333l4.226,-4.182c0.212,-0.21 0.523,-0.285 0.808,-0.195c0.285,0.09 0.497,0.33 0.55,0.624l3.008,16.601c0.047,0.259 -0.035,0.524 -0.221,0.711c-0.185,0.186 -0.45,0.271 -0.709,0.225l-16.818,-2.936c-0.297,-0.051 -0.54,-0.264 -0.63,-0.552c-0.09,-0.287 -0.012,-0.601 0.202,-0.812l4.438,-4.392Z" style="fill:white;"/>
            </g>
            <g>
                <path d="M65.074,104.472l-19.207,19.004l-19.206,-19.004l19.206,-19.005l19.207,19.005Z" style="fill:rgb(127,223,164);"/>
                <path d="M65.074,45.367l-19.207,19.005l-19.206,-19.005l19.206,-19.004l19.207,19.004Z" style="fill:rgb(127,223,164);"/>
                <ellipse cx="108.501" cy="49.278" rx="15.977" ry="16" style="fill:rgb(127,223,164);"/>
                <ellipse cx="108.501" cy="104.624" rx="16" ry="16.023" style="fill:rgb(127,223,164);"/>
            </g>
        </g>
    </g>
</svg>
